<?xml version="1.0" standalone="no"?>
<!DOCTYPE svg PUBLIC "-//W3C//DTD SVG 20010904//EN"
 "http://www.w3.org/TR/2001/REC-SVG-20010904/DTD/svg10.dtd">
<svg version="1.0" xmlns="http://www.w3.org/2000/svg"
 width="548.000000pt" height="548.000000pt" viewBox="0 0 548.000000 548.000000"
 preserveAspectRatio="xMidYMid meet">
<metadata>
Created by potrace 1.14, written by Peter Selinger 2001-2017
</metadata>
<g transform="translate(0.000000,548.000000) scale(0.100000,-0.100000)"
fill="#000000" stroke="none">
<path d="M2230 5376 c-3 -2 -34 -7 -70 -10 -80 -6 -130 -13 -195 -26 -27 -6
-59 -12 -70 -14 -51 -10 -186 -47 -240 -66 -33 -12 -67 -23 -75 -25 -48 -10
-271 -115 -395 -185 -217 -122 -482 -351 -655 -566 -114 -142 -310 -463 -310
-508 0 -8 -7 -19 -15 -26 -9 -7 -13 -15 -11 -18 3 -3 -1 -17 -9 -31 -14 -26
-64 -160 -69 -184 -2 -6 -6 -19 -9 -27 -20 -50 -70 -275 -83 -370 -1 -14 -6
-52 -11 -85 -9 -71 -9 -453 0 -510 4 -22 9 -60 12 -85 3 -25 7 -52 9 -60 4
-19 15 -78 20 -110 11 -60 50 -197 84 -290 3 -8 6 -19 8 -25 12 -50 107 -251
173 -369 19 -35 137 -212 181 -273 l30 -41 -81 -169 c-45 -92 -94 -195 -109
-228 -15 -33 -48 -103 -73 -155 -140 -296 -147 -317 -142 -431 3 -67 9 -93 35
-146 124 -251 450 -305 644 -108 43 44 116 169 116 200 0 7 7 18 15 25 8 7 15
18 15 25 0 7 34 83 75 168 41 86 75 161 75 166 0 6 4 11 9 11 5 0 12 12 16 27
3 16 13 37 21 48 13 18 16 18 42 3 241 -142 595 -266 862 -303 198 -27 507
-27 690 -1 77 12 106 17 120 21 8 2 26 6 40 9 266 49 665 221 875 378 178 133
200 153 337 290 171 172 309 363 422 581 49 96 86 146 108 147 3 0 70 38 149
85 78 47 143 85 145 85 2 0 20 11 41 25 54 36 55 37 198 125 222 136 279 220
279 405 0 85 -3 108 -24 150 -76 160 -226 254 -385 242 -81 -7 -102 -10 -111
-20 -4 -4 -13 -7 -21 -7 -7 0 -34 -13 -60 -29 -26 -17 -50 -28 -52 -25 -2 2
-5 28 -6 56 -3 51 -12 146 -20 198 -2 14 -6 45 -10 70 -30 197 -142 527 -238
700 -143 261 -242 395 -427 580 -79 80 -157 150 -205 188 -185 143 -355 243
-565 335 -107 46 -300 108 -379 122 -19 3 -37 7 -40 9 -3 2 -24 7 -46 10 -22
4 -47 8 -55 11 -8 2 -37 7 -65 10 -27 4 -63 9 -80 11 -44 7 -430 16 -435 10z
m380 -407 c45 -4 200 -30 228 -38 18 -5 36 -10 40 -11 74 -11 245 -72 372
-133 47 -22 87 -41 90 -42 10 -2 107 -60 176 -106 85 -57 234 -178 287 -234
124 -130 207 -227 207 -243 0 -6 4 -12 8 -14 20 -7 119 -172 177 -293 53 -109
114 -266 130 -333 3 -9 9 -37 16 -62 6 -25 13 -54 16 -65 2 -11 6 -33 9 -50 2
-16 8 -55 14 -85 8 -45 23 -227 22 -265 -2 -66 -10 -186 -13 -189 -11 -8 -160
-96 -164 -96 -2 0 -38 -20 -78 -45 -41 -25 -80 -45 -86 -45 -6 0 -11 -4 -11
-9 0 -5 -8 -11 -17 -14 -10 -3 -63 -31 -118 -61 -55 -31 -138 -75 -185 -98
-47 -24 -86 -46 -88 -50 -2 -5 -8 -8 -14 -8 -5 0 -43 -16 -84 -35 -148 -70
-231 -99 -276 -96 -23 1 -74 92 -88 155 -6 28 -15 67 -20 86 -6 19 -19 76 -30
125 -11 50 -25 106 -30 125 -5 19 -13 55 -19 80 -15 66 -55 237 -67 285 -1 6
-5 21 -8 35 -6 31 -8 40 -41 175 -15 61 -29 119 -31 130 -2 11 -24 106 -49
210 -25 105 -54 228 -65 275 -11 47 -24 100 -29 118 -5 18 -10 33 -10 35 3 27
-37 130 -66 172 -26 38 -31 43 -85 86 -81 65 -157 90 -264 85 -154 -7 -285
-97 -345 -235 -29 -69 -34 -92 -33 -171 0 -57 -14 -107 -38 -130 -3 -3 -30
-43 -60 -90 -30 -47 -58 -86 -62 -88 -5 -2 -8 -7 -8 -12 0 -4 -58 -95 -128
-201 -70 -107 -139 -212 -152 -234 -13 -22 -28 -44 -33 -50 -26 -31 -416 -631
-448 -690 -84 -153 -259 -501 -259 -514 0 -6 -3 -11 -7 -11 -5 0 -19 -25 -32
-55 -14 -30 -28 -55 -32 -55 -12 0 -86 130 -140 245 -40 85 -101 247 -114 303
-3 9 -9 37 -16 62 -6 25 -12 54 -15 65 -2 11 -6 31 -9 45 -17 86 -25 154 -31
270 -10 184 -2 295 37 495 28 142 93 347 139 433 4 9 23 46 41 82 29 60 112
201 131 225 4 6 33 44 65 85 60 80 112 138 207 229 93 89 95 91 106 91 6 0 10
4 10 8 0 14 304 222 325 222 2 0 45 20 97 44 111 51 297 117 377 132 7 1 34 7
60 13 57 13 97 19 181 27 36 4 67 8 69 10 3 3 324 -3 361 -7z m-325 -2254 c20
-82 38 -159 41 -170 3 -11 7 -29 9 -40 14 -83 88 -373 109 -427 111 -292 310
-499 561 -586 59 -21 147 -39 215 -46 19 -2 38 -4 43 -5 4 0 7 -8 7 -16 0 -19
2 -19 47 4 21 11 61 22 88 25 28 3 82 15 120 27 39 11 75 22 80 23 6 2 23 8
38 14 16 7 31 12 33 12 5 0 79 32 128 56 16 8 31 12 33 10 10 -10 -155 -157
-270 -239 -128 -92 -354 -217 -392 -217 -7 0 -15 -3 -17 -7 -3 -8 -176 -70
-213 -76 -11 -2 -27 -7 -35 -10 -16 -6 -59 -16 -100 -24 -14 -2 -43 -8 -65
-12 -22 -5 -47 -9 -55 -9 -8 0 -46 -5 -85 -10 -62 -9 -388 -8 -440 1 -11 2
-45 7 -75 11 -135 18 -364 87 -500 149 -36 17 -67 31 -70 31 -3 1 -44 22 -90
49 -46 26 -87 47 -92 47 -10 0 -10 6 2 28 5 9 83 166 173 347 163 328 265 525
277 535 4 3 22 31 41 63 18 31 37 57 41 57 5 0 8 4 8 10 0 5 17 35 39 67 123
183 201 304 201 312 0 5 3 11 8 13 4 2 32 41 62 87 30 46 55 80 57 75 1 -5 18
-76 38 -159z"/>
<path d="M2456 4763 c-2 -2 -33 -4 -69 -4 -54 -1 -66 -4 -66 -17 0 -10 -1 -50
-2 -90 0 -41 3 -78 7 -82 9 -9 62 -13 146 -11 l48 1 0 53 c0 45 0 89 -3 134 0
10 -52 24 -61 16z"/>
<path d="M1596 4523 c-4 -5 -11 -8 -14 -9 -4 0 -21 -9 -39 -19 l-32 -20 31
-55 c45 -81 48 -83 84 -62 73 41 71 32 29 106 -36 65 -44 73 -59 59z"/>
<path d="M3217 4438 c-50 -79 -50 -82 -9 -104 21 -10 39 -21 42 -24 14 -14 32
-7 42 17 7 16 15 30 18 33 7 7 40 67 40 73 0 6 -85 57 -94 57 -3 0 -20 -24
-39 -52z"/>
<path d="M922 3896 c-39 -65 -38 -68 36 -108 l68 -37 28 50 c15 28 26 52 24
54 -7 6 -127 75 -131 75 -3 0 -14 -15 -25 -34z"/>
<path d="M3830 3833 c-30 -18 -59 -34 -64 -36 -5 -2 1 -21 12 -42 39 -73 33
-72 106 -31 36 20 66 39 66 42 0 12 -46 94 -55 97 -5 2 -35 -11 -65 -30z"/>
<path d="M620 2960 l0 -100 100 0 100 0 0 100 0 100 -100 0 -100 0 0 -100z"/>
<path d="M3980 2960 l0 -100 100 0 100 0 0 100 0 100 -100 0 -100 0 0 -100z"/>
<path d="M1534 1522 c-15 -26 -33 -57 -41 -68 -13 -20 -10 -23 34 -53 l48 -31
23 27 c28 35 63 104 56 114 -2 4 -24 19 -49 32 l-44 25 -27 -46z"/>
<path d="M2354 1398 c-3 -4 -11 -5 -19 -2 -11 5 -14 -11 -14 -81 0 -47 -3 -90
-6 -95 -10 -16 52 -24 167 -21 l36 1 2 73 c3 123 2 127 -29 128 -14 0 -50 1
-79 2 -30 1 -56 -1 -58 -5z"/>
</g>
</svg>
