<svg xmlns="http://www.w3.org/2000/svg" xml:space="preserve" x="0px" y="0px" viewBox="0 0 301.335 130"><path fill="#00C73C" d="M0 0h301.335v130H0z"/><g fill="#FFF"><path d="M151.998 37h19.998c3.152 0 5.891.402 8.216 1.204 2.325.804 4.25 1.916 5.775 3.34a13.413 13.413 0 0 1 3.411 5.087c.749 1.968 1.124 4.091 1.124 6.369v1.631c0 2.279-.401 4.415-1.202 6.408a15.004 15.004 0 0 1-3.524 5.243c-1.55 1.502-3.474 2.693-5.772 3.572-2.298.882-4.972 1.321-8.019 1.321h-12.318v21.826h-7.689V37zm7.689 6.68v20.817h11.03c8.077 0 12.116-3.34 12.116-10.02v-1.398c0-3.21-.97-5.579-2.912-7.107-1.941-1.526-4.726-2.291-8.35-2.291h-11.884zM210.248 93.623c-4.299 0-7.703-1.061-10.214-3.184-2.512-2.123-3.767-5.048-3.767-8.777v-2.097c0-3.624 1.216-6.575 3.65-8.855 2.433-2.278 6.369-3.417 11.806-3.417h10.796v-2.486c0-2.847-.687-4.958-2.059-6.331-1.372-1.371-3.611-2.058-6.718-2.058-2.486 0-4.648.389-6.485 1.165-1.839.777-3.741 1.813-5.709 3.107l-3.728-5.593c2.071-1.449 4.401-2.705 6.99-3.767 2.589-1.061 5.592-1.592 9.01-1.592 2.381 0 4.556.298 6.525.893 1.967.596 3.662 1.476 5.087 2.641a12.31 12.31 0 0 1 3.34 4.272c.802 1.684 1.204 3.587 1.204 5.71v29.748h-7.223v-5.126h-.078a8.104 8.104 0 0 1-1.67 2.136 12.06 12.06 0 0 1-2.292 1.67 15.903 15.903 0 0 1-3.689 1.437c-1.32.336-2.912.504-4.776.504zm12.272-19.961h-10.641c-2.952 0-5.062.57-6.33 1.708-1.269 1.14-1.903 2.719-1.903 4.738v1.088c0 2.072.725 3.573 2.174 4.505 1.45.932 3.185 1.398 5.204 1.398 1.864 0 3.482-.219 4.854-.66a12.168 12.168 0 0 0 3.767-1.981c1.035-.777 1.773-1.67 2.214-2.679.439-1.01.66-2.317.66-3.923v-4.194zM256.228 84.458l11.184-33.943h7.923l-22.058 60.041-6.834-2.408 5.514-14.525L236.5 50.515h8.155l11.262 33.943h.311zM26 114V16h97.998v98H26zm73.499-26.569V42.569H83.022v23.219L67.213 42.569H50.499v44.862h16.484V64.209l15.808 23.222h16.708z"/></g></svg>