<svg xmlns="http://www.w3.org/2000/svg" xml:space="preserve" x="0px" y="0px" style="enable-background:new 0 0 244.3 56.7" viewBox="0 0 244.3 56.7">
    <path d="M5.1 43.8H0V1.1L5.1 0v43.8zm13.6-31 4 2.9L12.9 28l11.3 13.6-3.9 3L6.9 28.2l11.8-15.4zM28 35.7c0-3.1 1-5.4 3.1-7 2-1.6 5-2.4 8.9-2.4h5.9v-1.9c0-4.7-2.1-7-6.2-7-1.3 0-2.7.2-4.2.6-1.5.4-2.8.8-4 1.4L30 15.7c1.5-.8 3.1-1.5 4.9-2 1.7-.5 3.5-.7 5.1-.7 7.1 0 10.7 3.8 10.7 11.4v19.3h-3.8l-.6-3.3c-1.5 1.2-3.1 2.2-4.8 2.8-1.7.7-3.3 1-4.9 1-2.7 0-4.8-.8-6.3-2.3-1.5-1.4-2.3-3.6-2.3-6.2zm9.5 4.5c.7 0 1.4-.1 2.2-.3.8-.2 1.5-.4 2.3-.7.8-.3 1.5-.7 2.1-1.1.7-.4 1.3-.9 1.8-1.4v-7.1h-5.3c-2.7 0-4.6.5-5.9 1.4-1.2.9-1.8 2.4-1.8 4.4-.1 3.2 1.5 4.8 4.6 4.8zM65.7 43.8h-5.1V1.1L65.7 0v43.8zm13.6-31 4 2.9L73.5 28l11.3 13.6-3.9 3-13.3-16.4 11.7-15.4zM88.7 35.7c0-3.1 1-5.4 3.1-7s5-2.4 8.9-2.4h5.9v-1.9c0-4.7-2.1-7-6.2-7-1.3 0-2.7.2-4.2.6-1.5.4-2.8.8-4 1.4l-1.5-3.6c1.5-.8 3.1-1.5 4.9-2 1.7-.5 3.5-.7 5.1-.7 7.1 0 10.7 3.8 10.7 11.4v19.3h-3.8l-.6-3.3c-1.5 1.2-3.1 2.2-4.8 2.8-1.7.7-3.3 1-4.9 1-2.7 0-4.8-.8-6.3-2.3-1.6-1.5-2.3-3.7-2.3-6.3zm9.4 4.5c.7 0 1.4-.1 2.2-.3.8-.2 1.5-.4 2.3-.7.8-.3 1.5-.7 2.1-1.1.7-.4 1.3-.9 1.8-1.4v-7.1h-5.3c-2.7 0-4.6.5-5.9 1.4-1.2.9-1.8 2.4-1.8 4.4 0 3.2 1.5 4.8 4.6 4.8zM133 13.1c4.2 0 7.5 1.4 9.9 4.1 2.4 2.7 3.6 6.6 3.6 11.7 0 5-1.2 8.9-3.6 11.5-2.4 2.7-5.7 4-9.9 4s-7.5-1.3-9.9-4c-2.4-2.7-3.6-6.5-3.6-11.5 0-5.1 1.2-9 3.6-11.7 2.5-2.8 5.8-4.1 9.9-4.1zm0 4.1c-2.6 0-4.7 1-6.1 3-1.4 2-2.1 4.9-2.1 8.7 0 3.8.7 6.7 2.1 8.6 1.4 1.9 3.5 2.9 6.1 2.9 2.7 0 4.7-1 6.2-2.9 1.4-1.9 2.1-4.8 2.1-8.6s-.7-6.7-2.1-8.7c-1.4-2-3.5-3-6.2-3zM162.1 44.1v11.3H154V13.6h5.7l1 2.6c1.7-1.7 4.3-3.5 8.5-3.5 7.9 0 11.6 5.9 11.6 15.5 0 10-5.8 16.4-14.1 16.4-1.6 0-2.8-.1-4.6-.5zm0-23.7v18.1c.4.1 1.5.2 2.6.2 5.7 0 8-4 8-10.4 0-5.6-1.5-8.9-6.1-8.9-1.5-.1-3.2.3-4.5 1zM198.3 25.4h4.6v-1c0-3.3-1.9-4.9-5.1-4.9-2.5 0-5.7.7-8.3 2l-2.2-5.4c2.9-2 7.3-3.4 11.2-3.4 7.7 0 11.9 4.1 11.9 11.9v19.2h-5.7l-.8-2.5c-3.3 2.4-6.2 3.4-8.9 3.4-5.9 0-9.2-3.5-9.2-9.5 0-6.4 4.4-9.8 12.5-9.8zm4.6 10.6v-5.5h-3.7c-4.1 0-6.2 1.5-6.2 4.5 0 2.3 1.2 3.4 3.5 3.4 2.2 0 5-1.1 6.4-2.4zM234.8 40.7c-2.8 7.5-6.2 13-11.1 16l-5-4.6c2.9-2.5 4.9-4.9 6.7-8.2l-10.7-29.2 8-2.2 6.8 23.7 6.8-23.8 7.9 2.2-9.4 26.1z"/>
</svg>